<svg width="16" height="16" viewBox="0 0 16 16" fill="none" xmlns="http://www.w3.org/2000/svg">
<g clip-path="url(#clip0_2644_4)">
<circle cx="8" cy="8" r="8" fill="#EC7417"/>
<circle cx="7.99927" cy="8" r="7.6438" fill="#F6E0C0"/>
<circle cx="7.99915" cy="8" r="6.38977" fill="#EC7417"/>
<path d="M8.20458 3.80005C9.95658 3.80005 11.1086 4.84405 11.1086 6.47605C11.1086 8.09605 9.95658 9.15205 8.20458 9.15205H6.27258V12.2H4.89258V3.80005H8.20458ZM6.27258 7.95205H8.08458C9.06858 7.95205 9.70458 7.37605 9.70458 6.47605C9.70458 5.56405 9.08058 5.00005 8.09658 5.00005H6.27258V7.95205Z" fill="#F6E0C0"/>
<path d="M7.87646 9.64343H8.1475V9.93961C8.49956 9.9927 8.71471 10.2162 8.72589 10.532H8.40456C8.37941 10.3336 8.22294 10.1995 7.98544 10.1995C7.7647 10.1995 7.61102 10.2945 7.61102 10.4789C7.61102 10.6801 7.8122 10.722 8.11956 10.7751C8.44368 10.8337 8.75942 10.9371 8.75662 11.3227C8.75662 11.6413 8.51353 11.8732 8.1475 11.9123V12.2001H7.87646V11.9067C7.48528 11.8564 7.25336 11.6049 7.24219 11.2585L7.56631 11.264C7.58308 11.4932 7.7619 11.6468 8.03573 11.6468C8.26765 11.6468 8.4353 11.5435 8.4353 11.3563C8.4353 11.1495 8.23132 11.1048 7.92117 11.0489C7.59705 10.993 7.28969 10.8896 7.28969 10.5012C7.28969 10.1911 7.5216 9.97035 7.87646 9.93403V9.64343Z" fill="#F6E0C0"/>
<path d="M10.228 9.64343H10.4991V9.93961C10.8511 9.9927 11.0663 10.2162 11.0775 10.532H10.7561C10.731 10.3336 10.5745 10.1995 10.337 10.1995C10.1163 10.1995 9.96258 10.2945 9.96258 10.4789C9.96258 10.6801 10.1638 10.722 10.4711 10.7751C10.7952 10.8337 11.111 10.9371 11.1082 11.3227C11.1082 11.6413 10.8651 11.8732 10.4991 11.9123V12.2001H10.228V11.9067C9.83684 11.8564 9.60493 11.6049 9.59375 11.2585L9.91787 11.264C9.93464 11.4932 10.1135 11.6468 10.3873 11.6468C10.6192 11.6468 10.7869 11.5435 10.7869 11.3563C10.7869 11.1495 10.5829 11.1048 10.2727 11.0489C9.94861 10.993 9.64125 10.8896 9.64125 10.5012C9.64125 10.1911 9.87317 9.97035 10.228 9.93403V9.64343Z" fill="#F6E0C0"/>
</g>
<defs>
<clipPath id="clip0_2644_4">
<rect width="16" height="16" fill="white"/>
</clipPath>
</defs>
</svg>
