<svg width="150" height="150" viewBox="0 0 150 150" fill="none" xmlns="http://www.w3.org/2000/svg">
<path d="M117.249 0H32.7511C14.6632 0 0 14.6632 0 32.7511V117.249C0 135.337 14.6632 150 32.7511 150H117.249C135.337 150 150 135.337 150 117.249V32.7511C150 14.6632 135.337 0 117.249 0Z" fill="#8583F3"/>
<path d="M98.7445 81.552C102.814 81.552 106.113 77.1531 106.113 71.7267C106.113 66.3003 102.814 61.9014 98.7445 61.9014C94.6747 61.9014 91.3755 66.3003 91.3755 71.7267C91.3755 77.1531 94.6747 81.552 98.7445 81.552Z" fill="white"/>
<path d="M118.067 79.2574C121.414 79.2574 124.126 75.5916 124.126 71.0696C124.126 66.5476 121.414 62.8818 118.067 62.8818C114.721 62.8818 112.008 66.5476 112.008 71.0696C112.008 75.5916 114.721 79.2574 118.067 79.2574Z" fill="white"/>
<path d="M76.3508 26.2031C94.6826 26.2031 110.731 35.714 119.573 49.9421C120.604 51.6013 119.353 53.6564 117.4 53.6564H100.088C99.3971 53.6564 98.7382 53.38 98.2312 52.9113C92.5338 47.6423 84.8304 44.4088 76.3508 44.4088C58.8041 44.4088 44.5796 58.2527 44.5796 75.3298C44.5796 92.4068 58.8041 106.251 76.3508 106.251C87.3919 106.251 97.117 100.769 102.811 92.4494C103.324 91.6994 104.161 91.2235 105.07 91.2235H120.43C122.236 91.2235 123.496 93.0088 122.769 94.6614C115.055 112.182 97.1759 124.456 76.3508 124.456C48.4728 124.456 25.8735 102.462 25.8735 75.3298C25.8735 48.1978 48.4728 26.2031 76.3508 26.2031Z" fill="white"/>
</svg>
